<svg xmlns="http://www.w3.org/2000/svg" width="38" height="38" viewBox="0 0 38 38" fill="none">
    <circle cx="19" cy="19" r="19" fill="#3C9B05" />
    <path
        d="M13.62 17.79C15.06 20.62 17.38 22.93 20.21 24.38L22.41 22.18C22.68 21.91 23.08 21.82 23.43 21.94C24.55 22.31 25.76 22.51 27 22.51C27.55 22.51 28 22.96 28 23.51V27C28 27.55 27.55 28 27 28C17.61 28 10 20.39 10 11C10 10.45 10.45 10 11 10H14.5C15.05 10 15.5 10.45 15.5 11C15.5 12.25 15.7 13.45 16.07 14.57C16.18 14.92 16.1 15.31 15.82 15.59L13.62 17.79Z"
        fill="white" />
</svg>