<svg xmlns="http://www.w3.org/2000/svg" width="44" height="44" viewBox="0 0 44 44" fill="none">
    <path
        d="M1.07385 21.8098C1.07282 25.4951 2.04009 29.0936 3.87934 32.2653L0.897949 43.102L12.0379 40.1942C15.1191 41.864 18.5713 42.739 22.0795 42.7392H22.0887C33.6698 42.7392 43.0971 33.3576 43.102 21.8263C43.1043 16.2386 40.9204 10.9843 36.9526 7.03122C32.9855 3.07849 27.7094 0.900499 22.0879 0.897949C10.5054 0.897949 1.0788 10.2791 1.07402 21.8098"
        fill="url(#paint0_linear_109_190)" />
    <path
        d="M0.183906 21.8019C0.182703 25.6445 1.19109 29.3957 3.10819 32.7022L0 44L11.6138 40.9685C14.8137 42.7054 18.4166 43.6212 22.0827 43.6225H22.0921C34.166 43.6225 43.9948 33.8406 44 21.8194C44.0021 15.9935 41.7251 10.5151 37.5891 6.39398C33.4525 2.27335 27.9525 0.00239552 22.0921 0C10.0162 0 0.188719 9.78055 0.183906 21.8019ZM7.10016 32.1328L6.66652 31.4475C4.84361 28.5619 3.88145 25.2274 3.88283 21.8033C3.88678 11.8114 12.055 3.68225 22.099 3.68225C26.9631 3.68431 31.5343 5.57197 34.9724 8.99688C38.4105 12.4221 40.3023 16.9753 40.3011 21.818C40.2966 31.8099 32.1283 39.9401 22.0921 39.9401H22.0849C18.817 39.9384 15.6121 39.0647 12.8171 37.4137L12.1519 37.021L5.26006 38.8199L7.10016 32.1326V32.1328Z"
        fill="url(#paint1_linear_109_190)" />
    <path
        d="M16.4829 12.6329C16.0691 11.7206 15.6336 11.7022 15.2401 11.6862C14.9179 11.6724 14.5495 11.6735 14.1815 11.6735C13.8132 11.6735 13.2147 11.8109 12.7088 12.3589C12.2024 12.9073 10.7755 14.2326 10.7755 16.9282C10.7755 19.6239 12.7548 22.229 13.0307 22.5949C13.307 22.9602 16.8517 28.6689 22.4658 30.865C27.1315 32.6901 28.081 32.3271 29.0936 32.2356C30.1064 32.1444 32.3616 30.9106 32.8217 29.6312C33.2821 28.352 33.2821 27.2555 33.1441 27.0263C33.006 26.798 32.6377 26.6609 32.0853 26.387C31.5328 26.113 28.8174 24.7875 28.3111 24.6046C27.8048 24.4219 27.4366 24.3307 27.0682 24.8793C26.6999 25.4271 25.6422 26.6609 25.3198 27.0263C24.9977 27.3926 24.6753 27.4381 24.1232 27.1641C23.5705 26.8892 21.7917 26.3113 19.6813 24.445C18.0393 22.9927 16.9308 21.1992 16.6086 20.6506C16.2864 20.1029 16.5741 19.806 16.851 19.5329C17.0992 19.2874 17.4036 18.8931 17.68 18.5733C17.9554 18.2534 18.0473 18.0251 18.2315 17.6597C18.4158 17.2939 18.3236 16.974 18.1857 16.6999C18.0473 16.4259 16.974 13.7162 16.4829 12.6329Z"
        fill="white" />
    <defs>
        <linearGradient id="paint0_linear_109_190" x1="2111.1" y1="4221.31" x2="2111.1" y2="0.897949"
            gradientUnits="userSpaceOnUse">
            <stop stop-color="#1FAF38" />
            <stop offset="1" stop-color="#60D669" />
        </linearGradient>
        <linearGradient id="paint1_linear_109_190" x1="2200" y1="4400" x2="2200" y2="0" gradientUnits="userSpaceOnUse">
            <stop stop-color="#F9F9F9" />
            <stop offset="1" stop-color="white" />
        </linearGradient>
    </defs>
</svg>