<svg width="26" height="21" viewBox="0 0 26 21" fill="none" xmlns="http://www.w3.org/2000/svg">
<path d="M0.897959 3.73857H24.2449C24.7409 3.73857 25.1429 3.36664 25.1429 2.90778V0.830794C25.1429 0.371936 24.7409 0 24.2449 0H0.897959C0.402005 0 0 0.371936 0 0.830794V2.90778C0 3.36664 0.402005 3.73857 0.897959 3.73857ZM0.897959 12.0465H24.2449C24.7409 12.0465 25.1429 11.6746 25.1429 11.2157V9.13874C25.1429 8.67988 24.7409 8.30794 24.2449 8.30794H0.897959C0.402005 8.30794 0 8.67988 0 9.13874V11.2157C0 11.6746 0.402005 12.0465 0.897959 12.0465ZM0.897959 20.3545H24.2449C24.7409 20.3545 25.1429 19.9825 25.1429 19.5237V17.4467C25.1429 16.9878 24.7409 16.6159 24.2449 16.6159H0.897959C0.402005 16.6159 0 16.9878 0 17.4467V19.5237C0 19.9825 0.402005 20.3545 0.897959 20.3545Z" fill="white"/>
</svg>
