<svg width="18" height="18" viewBox="0 0 18 18" fill="none" xmlns="http://www.w3.org/2000/svg">
<path fill-rule="evenodd" clip-rule="evenodd" d="M9.01025 11.4347L15.072 17.4976C15.3937 17.8193 15.8299 18 16.2848 18C16.7397 18 17.176 17.8193 17.4976 17.4976C17.8193 17.176 18 16.7397 18 16.2848C18 15.8299 17.8193 15.3937 17.4976 15.072L11.4336 9.01026L17.4965 2.9485C17.6557 2.78923 17.7819 2.60017 17.8681 2.3921C17.9542 2.18404 17.9985 1.96105 17.9985 1.73586C17.9984 1.51067 17.954 1.2877 17.8678 1.07968C17.7815 0.871654 17.6552 0.682649 17.4959 0.523456C17.3367 0.364263 17.1476 0.237999 16.9395 0.151873C16.7315 0.0657466 16.5085 0.0214453 16.2833 0.0214984C16.0581 0.0215514 15.8351 0.0659575 15.6271 0.152182C15.4191 0.238406 15.2301 0.36476 15.0709 0.524028L9.01025 6.58579L2.94849 0.524028C2.79039 0.360191 2.60126 0.22948 2.39211 0.139521C2.18296 0.0495621 1.95799 0.00215687 1.73033 7.19041e-05C1.50266 -0.00201306 1.27686 0.0412636 1.0661 0.127377C0.855339 0.21349 0.663839 0.340716 0.502773 0.50163C0.341707 0.662543 0.214301 0.853924 0.127989 1.0646C0.0416772 1.27528 -0.00181243 1.50104 5.78591e-05 1.72871C0.00192814 1.95637 0.0491207 2.18139 0.138882 2.39062C0.228644 2.59985 0.359177 2.78911 0.522865 2.94736L6.58692 9.01026L0.524008 15.072C0.202351 15.3937 0.0216457 15.8299 0.0216457 16.2848C0.0216457 16.7397 0.202351 17.176 0.524008 17.4976C0.845666 17.8193 1.28193 18 1.73682 18C2.19171 18 2.62797 17.8193 2.94963 17.4976L9.01025 11.4336V11.4347Z" fill="white"/>
</svg>
