<svg width="148" height="44" viewBox="0 0 148 44" fill="none" xmlns="http://www.w3.org/2000/svg">
    <path
        d="M37.885 41V40.043L40.943 37.139C41.1997 36.897 41.3903 36.6843 41.515 36.501C41.6397 36.3177 41.7203 36.149 41.757 35.995C41.801 35.8337 41.823 35.6833 41.823 35.544C41.823 35.192 41.702 34.9207 41.46 34.73C41.218 34.532 40.8623 34.433 40.393 34.433C40.019 34.433 39.678 34.499 39.37 34.631C39.0693 34.763 38.809 34.9647 38.589 35.236L37.588 34.466C37.8887 34.0627 38.292 33.751 38.798 33.531C39.3113 33.3037 39.8833 33.19 40.514 33.19C41.0713 33.19 41.5553 33.2817 41.966 33.465C42.384 33.641 42.703 33.894 42.923 34.224C43.1503 34.554 43.264 34.9463 43.264 35.401C43.264 35.6503 43.231 35.8997 43.165 36.149C43.099 36.391 42.9743 36.6477 42.791 36.919C42.6077 37.1903 42.34 37.4947 41.988 37.832L39.359 40.329L39.062 39.79H43.561V41H37.885ZM43.8952 39.251V38.261L47.6902 33.3H49.2192L45.4792 38.261L44.7642 38.041H50.8692V39.251H43.8952ZM48.1192 41V39.251L48.1632 38.041V36.49H49.5052V41H48.1192ZM50.7049 41L53.2899 37.634L53.2679 38.371L50.8039 35.126H52.3329L54.0599 37.436H53.4769L55.2149 35.126H56.6999L54.2139 38.371L54.2249 37.634L56.7989 41H55.2479L53.4329 38.547L54.0049 38.624L52.2229 41H50.7049ZM58.4089 41L61.5879 33.872L61.9619 34.51H57.5949L58.2769 33.817V35.819H56.9459V33.3H62.9299V34.257L59.9379 41H58.4089ZM70.4513 41V39.812L70.3743 39.559V37.48C70.3743 37.0767 70.2533 36.765 70.0113 36.545C69.7693 36.3177 69.4026 36.204 68.9113 36.204C68.5813 36.204 68.2549 36.2553 67.9323 36.358C67.6169 36.4607 67.3493 36.6037 67.1293 36.787L66.5903 35.786C66.9056 35.544 67.2796 35.3643 67.7123 35.247C68.1523 35.1223 68.6069 35.06 69.0763 35.06C69.9269 35.06 70.5833 35.2653 71.0453 35.676C71.5146 36.0793 71.7493 36.7063 71.7493 37.557V41H70.4513ZM68.6033 41.077C68.1633 41.077 67.7783 41.0037 67.4483 40.857C67.1183 40.703 66.8616 40.494 66.6783 40.23C66.5023 39.9587 66.4143 39.6543 66.4143 39.317C66.4143 38.987 66.4913 38.69 66.6453 38.426C66.8066 38.162 67.0669 37.953 67.4263 37.799C67.7856 37.645 68.2623 37.568 68.8563 37.568H70.5613V38.481H68.9553C68.4859 38.481 68.1706 38.558 68.0093 38.712C67.8479 38.8587 67.7673 39.042 67.7673 39.262C67.7673 39.5113 67.8663 39.7093 68.0643 39.856C68.2623 40.0027 68.5373 40.076 68.8893 40.076C69.2266 40.076 69.5273 39.999 69.7913 39.845C70.0626 39.691 70.2569 39.4637 70.3743 39.163L70.6053 39.988C70.4733 40.3327 70.2349 40.6003 69.8903 40.791C69.5529 40.9817 69.1239 41.077 68.6033 41.077ZM74.7485 41L72.2295 35.126H73.6595L75.8265 40.307H75.1225L77.3665 35.126H78.6865L76.1675 41H74.7485ZM82.7622 41V39.812L82.6852 39.559V37.48C82.6852 37.0767 82.5642 36.765 82.3222 36.545C82.0802 36.3177 81.7136 36.204 81.2222 36.204C80.8922 36.204 80.5659 36.2553 80.2432 36.358C79.9279 36.4607 79.6602 36.6037 79.4402 36.787L78.9012 35.786C79.2166 35.544 79.5906 35.3643 80.0232 35.247C80.4632 35.1223 80.9179 35.06 81.3872 35.06C82.2379 35.06 82.8942 35.2653 83.3562 35.676C83.8256 36.0793 84.0602 36.7063 84.0602 37.557V41H82.7622ZM80.9142 41.077C80.4742 41.077 80.0892 41.0037 79.7592 40.857C79.4292 40.703 79.1726 40.494 78.9892 40.23C78.8132 39.9587 78.7252 39.6543 78.7252 39.317C78.7252 38.987 78.8022 38.69 78.9562 38.426C79.1176 38.162 79.3779 37.953 79.7372 37.799C80.0966 37.645 80.5732 37.568 81.1672 37.568H82.8722V38.481H81.2662C80.7969 38.481 80.4816 38.558 80.3202 38.712C80.1589 38.8587 80.0782 39.042 80.0782 39.262C80.0782 39.5113 80.1772 39.7093 80.3752 39.856C80.5732 40.0027 80.8482 40.076 81.2002 40.076C81.5376 40.076 81.8382 39.999 82.1022 39.845C82.3736 39.691 82.5679 39.4637 82.6852 39.163L82.9162 39.988C82.7842 40.3327 82.5459 40.6003 82.2012 40.791C81.8639 40.9817 81.4349 41.077 80.9142 41.077ZM85.6049 41V35.126H86.9799V41H85.6049ZM86.2979 34.158C86.0412 34.158 85.8286 34.0773 85.6599 33.916C85.4986 33.7547 85.4179 33.5603 85.4179 33.333C85.4179 33.0983 85.4986 32.904 85.6599 32.75C85.8286 32.5887 86.0412 32.508 86.2979 32.508C86.5546 32.508 86.7636 32.585 86.9249 32.739C87.0936 32.8857 87.1779 33.0727 87.1779 33.3C87.1779 33.542 87.0972 33.7473 86.9359 33.916C86.7746 34.0773 86.5619 34.158 86.2979 34.158ZM88.5646 41V32.838H89.9396V41H88.5646ZM95.1433 41V39.812L95.0663 39.559V37.48C95.0663 37.0767 94.9453 36.765 94.7033 36.545C94.4613 36.3177 94.0946 36.204 93.6033 36.204C93.2733 36.204 92.9469 36.2553 92.6243 36.358C92.3089 36.4607 92.0413 36.6037 91.8213 36.787L91.2823 35.786C91.5976 35.544 91.9716 35.3643 92.4043 35.247C92.8443 35.1223 93.2989 35.06 93.7683 35.06C94.6189 35.06 95.2753 35.2653 95.7373 35.676C96.2066 36.0793 96.4413 36.7063 96.4413 37.557V41H95.1433ZM93.2953 41.077C92.8553 41.077 92.4703 41.0037 92.1403 40.857C91.8103 40.703 91.5536 40.494 91.3703 40.23C91.1943 39.9587 91.1063 39.6543 91.1063 39.317C91.1063 38.987 91.1833 38.69 91.3373 38.426C91.4986 38.162 91.7589 37.953 92.1183 37.799C92.4776 37.645 92.9543 37.568 93.5483 37.568H95.2533V38.481H93.6473C93.1779 38.481 92.8626 38.558 92.7013 38.712C92.5399 38.8587 92.4593 39.042 92.4593 39.262C92.4593 39.5113 92.5583 39.7093 92.7563 39.856C92.9543 40.0027 93.2293 40.076 93.5813 40.076C93.9186 40.076 94.2193 39.999 94.4833 39.845C94.7546 39.691 94.9489 39.4637 95.0663 39.163L95.2973 39.988C95.1653 40.3327 94.9269 40.6003 94.5823 40.791C94.2449 40.9817 93.8159 41.077 93.2953 41.077ZM101.242 41.077C100.743 41.077 100.3 40.967 99.9109 40.747C99.5222 40.527 99.2142 40.197 98.9869 39.757C98.7669 39.3097 98.6569 38.745 98.6569 38.063C98.6569 37.3737 98.7706 36.809 98.9979 36.369C99.2326 35.929 99.5442 35.6027 99.9329 35.39C100.329 35.17 100.765 35.06 101.242 35.06C101.821 35.06 102.331 35.1847 102.771 35.434C103.218 35.6833 103.57 36.0317 103.827 36.479C104.091 36.9263 104.223 37.4543 104.223 38.063C104.223 38.6717 104.091 39.1997 103.827 39.647C103.57 40.0943 103.218 40.4463 102.771 40.703C102.331 40.9523 101.821 41.077 101.242 41.077ZM97.9859 41V32.838H99.3609V36.49L99.2509 38.052L99.2949 39.614V41H97.9859ZM101.088 39.9C101.418 39.9 101.711 39.8267 101.968 39.68C102.232 39.5333 102.441 39.3207 102.595 39.042C102.749 38.7633 102.826 38.437 102.826 38.063C102.826 37.6817 102.749 37.3553 102.595 37.084C102.441 36.8053 102.232 36.5927 101.968 36.446C101.711 36.2993 101.418 36.226 101.088 36.226C100.758 36.226 100.461 36.2993 100.197 36.446C99.9329 36.5927 99.7239 36.8053 99.5699 37.084C99.4159 37.3553 99.3389 37.6817 99.3389 38.063C99.3389 38.437 99.4159 38.7633 99.5699 39.042C99.7239 39.3207 99.9329 39.5333 100.197 39.68C100.461 39.8267 100.758 39.9 101.088 39.9ZM105.307 41V32.838H106.682V41H105.307ZM111.028 41.077C110.375 41.077 109.803 40.9487 109.312 40.692C108.828 40.428 108.45 40.0687 108.179 39.614C107.915 39.1593 107.783 38.6423 107.783 38.063C107.783 37.4763 107.911 36.9593 108.168 36.512C108.432 36.0573 108.791 35.7017 109.246 35.445C109.708 35.1883 110.232 35.06 110.819 35.06C111.391 35.06 111.9 35.1847 112.348 35.434C112.795 35.6833 113.147 36.0353 113.404 36.49C113.66 36.9447 113.789 37.48 113.789 38.096C113.789 38.1547 113.785 38.2207 113.778 38.294C113.778 38.3673 113.774 38.437 113.767 38.503H108.872V37.59H113.041L112.502 37.876C112.509 37.5387 112.439 37.2417 112.293 36.985C112.146 36.7283 111.944 36.5267 111.688 36.38C111.438 36.2333 111.149 36.16 110.819 36.16C110.481 36.16 110.184 36.2333 109.928 36.38C109.678 36.5267 109.48 36.732 109.334 36.996C109.194 37.2527 109.125 37.557 109.125 37.909V38.129C109.125 38.481 109.205 38.7927 109.367 39.064C109.528 39.3353 109.755 39.5443 110.049 39.691C110.342 39.8377 110.679 39.911 111.061 39.911C111.391 39.911 111.688 39.8597 111.952 39.757C112.216 39.6543 112.45 39.493 112.656 39.273L113.393 40.12C113.129 40.428 112.795 40.6663 112.392 40.835C111.996 40.9963 111.541 41.077 111.028 41.077Z"
        fill="#3C9B05" />
    <line x1="4.5" y1="36.5" x2="34.5" y2="36.5" stroke="#3C9B05" />
    <line x1="116.5" y1="36.5" x2="145.5" y2="36.5" stroke="#3C9B05" />
    <path
        d="M31.052 23.336C29.356 23.336 27.868 23.024 26.588 22.4C25.324 21.776 24.34 20.912 23.636 19.808C22.948 18.688 22.604 17.4 22.604 15.944C22.604 14.488 22.86 13.144 23.372 11.912C23.884 10.68 24.612 9.616 25.556 8.72C26.5 7.808 27.62 7.104 28.916 6.608C30.228 6.112 31.684 5.864 33.284 5.864C34.964 5.864 36.412 6.128 37.628 6.656C38.86 7.184 39.852 7.952 40.604 8.96L37.196 11.648C36.636 10.96 36.028 10.48 35.372 10.208C34.716 9.936 33.948 9.8 33.068 9.8C32.204 9.8 31.42 9.944 30.716 10.232C30.028 10.52 29.436 10.928 28.94 11.456C28.444 11.984 28.06 12.608 27.788 13.328C27.532 14.032 27.404 14.8 27.404 15.632C27.404 16.384 27.572 17.048 27.908 17.624C28.244 18.184 28.732 18.624 29.372 18.944C30.012 19.248 30.788 19.4 31.7 19.4C32.436 19.4 33.14 19.28 33.812 19.04C34.5 18.8 35.188 18.4 35.876 17.84L37.676 21.32C36.812 21.96 35.812 22.456 34.676 22.808C33.54 23.16 32.332 23.336 31.052 23.336ZM33.62 20.576L34.892 14.24H39.092L37.676 21.32L33.62 20.576ZM50.1448 9.776C51.2168 9.776 52.1368 10.008 52.9048 10.472C53.6888 10.92 54.2488 11.592 54.5848 12.488C54.9208 13.368 54.9528 14.472 54.6808 15.8L53.2408 23H48.6808L50.0248 16.232C50.2008 15.4 50.1448 14.76 49.8568 14.312C49.5848 13.864 49.0728 13.64 48.3208 13.64C47.5528 13.64 46.9048 13.88 46.3768 14.36C45.8488 14.84 45.4808 15.576 45.2728 16.568L43.9768 23H39.4168L42.9688 5.192H47.5288L45.8488 13.616L45.0088 12.584C45.6328 11.608 46.4008 10.896 47.3128 10.448C48.2408 10 49.1848 9.776 50.1448 9.776ZM112.218 9.776C113.258 9.776 114.154 10.008 114.906 10.472C115.658 10.92 116.194 11.592 116.514 12.488C116.85 13.368 116.882 14.472 116.61 15.8L115.194 23H110.634L111.978 16.28C112.154 15.4 112.098 14.744 111.81 14.312C111.538 13.864 111.082 13.64 110.442 13.64C109.754 13.64 109.17 13.864 108.69 14.312C108.226 14.744 107.89 15.456 107.682 16.448L106.362 23H101.802L103.17 16.28C103.346 15.4 103.29 14.744 103.002 14.312C102.73 13.864 102.274 13.64 101.634 13.64C100.946 13.64 100.362 13.864 99.8819 14.312C99.4019 14.76 99.0579 15.488 98.8499 16.496L97.5539 23H92.9939L95.5859 9.992H99.9059L99.2819 13.016L98.6099 12.584C99.2019 11.624 99.9299 10.92 100.794 10.472C101.674 10.008 102.586 9.776 103.53 9.776C104.298 9.776 104.994 9.92 105.618 10.208C106.258 10.48 106.786 10.904 107.202 11.48C107.618 12.04 107.866 12.752 107.946 13.616L106.53 13.208C107.122 12.104 107.906 11.256 108.882 10.664C109.858 10.072 110.97 9.776 112.218 9.776ZM117.568 23L120.928 6.2H125.68L123.088 19.232H131.104L130.336 23H117.568ZM138.458 23.216C137.082 23.216 135.882 22.968 134.858 22.472C133.834 21.976 133.042 21.288 132.482 20.408C131.922 19.512 131.642 18.472 131.642 17.288C131.642 15.848 131.986 14.568 132.674 13.448C133.362 12.312 134.306 11.416 135.506 10.76C136.706 10.104 138.082 9.776 139.634 9.776C141.026 9.776 142.226 10.024 143.234 10.52C144.258 11 145.05 11.68 145.61 12.56C146.17 13.44 146.45 14.48 146.45 15.68C146.45 17.12 146.106 18.408 145.418 19.544C144.73 20.68 143.786 21.576 142.586 22.232C141.386 22.888 140.01 23.216 138.458 23.216ZM138.722 19.592C139.33 19.592 139.866 19.44 140.33 19.136C140.794 18.816 141.154 18.384 141.41 17.84C141.682 17.296 141.818 16.656 141.818 15.92C141.818 15.2 141.602 14.6 141.17 14.12C140.754 13.64 140.154 13.4 139.37 13.4C138.762 13.4 138.226 13.552 137.762 13.856C137.298 14.16 136.93 14.592 136.658 15.152C136.402 15.696 136.274 16.336 136.274 17.072C136.274 17.84 136.49 18.456 136.922 18.92C137.354 19.368 137.954 19.592 138.722 19.592Z"
        fill="white" />
    <line x1="5.5" y1="8.25" x2="17.5" y2="8.25" stroke="#3C9B05" stroke-width="1.5" />
    <path d="M0 15L17.5 15" stroke="#3C9B05" stroke-width="1.5" />
    <line x1="9.5" y1="22.25" x2="17.5" y2="22.25" stroke="#3C9B05" stroke-width="1.5" />
    <path
        d="M65.5 16.1429C66.1312 16.1429 66.6429 15.6312 66.6429 15C66.6429 14.3688 66.1312 13.8571 65.5 13.8571C64.8689 13.8571 64.3572 14.3688 64.3572 15C64.3572 15.6312 64.8689 16.1429 65.5 16.1429Z"
        stroke="white" />
    <path
        d="M60.7 15H63.9M67.1 15H70.3M63.1 19.1568L64.7 16.3856M66.3 13.6144L67.9 10.8432M67.9 19.1568L66.3 16.3856M64.7 13.6144L63.1 10.8432M61.5 8.07041C62.7156 7.36713 64.0956 6.99785 65.5 7.00001C69.9184 7.00001 73.5 10.5816 73.5 15C73.5 19.4184 69.9184 23 65.5 23C61.0816 23 57.5 19.4184 57.5 15C57.5 13.5432 57.8896 12.176 58.5704 11"
        stroke="white" stroke-linecap="round" />
    <path
        d="M68.3567 19.949C67.1561 20.642 65.7444 20.8749 64.3848 20.6044C63.0252 20.3338 61.8103 19.5782 60.9664 18.4784C60.1226 17.3785 59.7073 16.0094 59.798 14.6261C59.8887 13.2428 60.4792 11.9396 61.4594 10.9594C62.4397 9.97914 63.7429 9.38866 65.1262 9.29796C66.5095 9.20725 67.8786 9.62251 68.9784 10.4664C70.0783 11.3102 70.8339 12.5251 71.1044 13.8848C71.375 15.2444 71.1421 16.656 70.4491 17.8566"
        stroke="white" stroke-linecap="round" />
    <path
        d="M83.5 16.1429C84.1312 16.1429 84.6429 15.6312 84.6429 15C84.6429 14.3688 84.1312 13.8571 83.5 13.8571C82.8689 13.8571 82.3572 14.3688 82.3572 15C82.3572 15.6312 82.8689 16.1429 83.5 16.1429Z"
        stroke="white" />
    <path
        d="M78.7 15H81.9M85.1 15H88.3M81.1 19.1568L82.7 16.3856M84.3 13.6144L85.9 10.8432M85.9 19.1568L84.3 16.3856M82.7 13.6144L81.1 10.8432M79.5 8.07041C80.7156 7.36713 82.0956 6.99785 83.5 7.00001C87.9184 7.00001 91.5 10.5816 91.5 15C91.5 19.4184 87.9184 23 83.5 23C79.0816 23 75.5 19.4184 75.5 15C75.5 13.5432 75.8896 12.176 76.5704 11"
        stroke="white" stroke-linecap="round" />
    <path
        d="M86.3567 19.949C85.1561 20.642 83.7444 20.8749 82.3848 20.6044C81.0252 20.3338 79.8103 19.5782 78.9664 18.4784C78.1226 17.3785 77.7073 16.0094 77.798 14.6261C77.8887 13.2428 78.4792 11.9396 79.4594 10.9594C80.4397 9.97914 81.7429 9.38866 83.1262 9.29796C84.5095 9.20725 85.8786 9.62251 86.9784 10.4664C88.0783 11.3102 88.8339 12.5251 89.1044 13.8848C89.375 15.2444 89.1421 16.656 88.4491 17.8566"
        stroke="white" stroke-linecap="round" />
</svg>